<svg width="437" height="489" viewBox="0 0 437 489" fill="none" xmlns="http://www.w3.org/2000/svg">
<path d="M427.072 0.368011H9.928C7.51453 0.368011 5.19991 1.47384 3.49333 3.44222C1.78675 5.4106 0.828003 8.0803 0.828003 10.864V477.936C0.828003 480.72 1.78675 483.389 3.49333 485.358C5.19991 487.326 7.51453 488.432 9.928 488.432H427.072C429.485 488.432 431.8 487.326 433.507 485.358C435.213 483.389 436.172 480.72 436.172 477.936V10.864C436.172 8.0803 435.213 5.4106 433.507 3.44222C431.8 1.47384 429.485 0.368011 427.072 0.368011ZM19.028 21.36H208.672V467.44H19.028V21.36ZM417.972 467.44H228.328V21.36H417.972V467.44ZM254.172 417.584H390.672C391.275 417.584 391.854 417.308 392.281 416.815C392.707 416.323 392.947 415.656 392.947 414.96V52.848C392.947 52.1521 392.707 51.4847 392.281 50.9926C391.854 50.5005 391.275 50.224 390.672 50.224H254.172C253.569 50.224 252.99 50.5005 252.563 50.9926C252.137 51.4847 251.897 52.1521 251.897 52.848V414.96C251.897 415.656 252.137 416.323 252.563 416.815C252.99 417.308 253.569 417.584 254.172 417.584ZM256.447 345.162H297.397V412.336H256.447V345.162ZM342.897 127.894V195.069H301.947V127.894H342.897ZM301.947 122.646V55.472H342.897V122.646H301.947ZM301.947 339.914V272.739H342.897V339.914H301.947ZM342.897 345.162V412.336H301.947V345.162H342.897ZM301.947 267.491V200.317H342.897V267.491H301.947ZM347.447 272.739H388.397V339.914H347.447V272.739ZM347.447 267.491V200.317H388.397V267.491H347.447ZM347.447 195.069V127.894H388.397V195.069H347.447ZM297.397 195.069H256.447V127.894H297.397V195.069ZM297.397 200.317V267.491H256.447V200.317H297.397ZM297.397 272.739V339.914H256.447V272.739H297.397ZM347.447 412.336V345.162H388.397V412.336H347.447ZM388.397 122.646H347.447V55.472H388.397V122.646ZM297.397 55.472V122.646H256.447V55.472H297.397ZM234.835 291.632V248.074C234.835 246.682 235.314 245.347 236.167 244.363C237.02 243.379 238.178 242.826 239.385 242.826C240.591 242.826 241.749 243.379 242.602 244.363C243.455 245.347 243.934 246.682 243.934 248.074V291.632H234.835ZM182.828 50.224H46.328C45.7246 50.224 45.146 50.5005 44.7193 50.9926C44.2927 51.4847 44.053 52.1521 44.053 52.848V414.96C44.053 415.656 44.2927 416.323 44.7193 416.815C45.146 417.308 45.7246 417.584 46.328 417.584H182.828C183.431 417.584 184.01 417.308 184.437 416.815C184.863 416.323 185.103 415.656 185.103 414.96V52.848C185.103 52.1521 184.863 51.4847 184.437 50.9926C184.01 50.5005 183.431 50.224 182.828 50.224ZM180.553 122.646H139.603V55.472H180.553V122.646ZM94.103 339.914V272.739H135.053V339.914H94.103ZM135.053 345.162V412.336H94.103V345.162H135.053ZM135.053 127.894V195.069H94.103V127.894H135.053ZM94.103 122.646V55.472H135.053V122.646H94.103ZM135.053 200.317V267.491H94.103V200.317H135.053ZM89.553 195.069H48.603V127.894H89.553V195.069ZM89.553 200.317V267.491H48.603V200.317H89.553ZM89.553 272.739V339.914H48.603V272.739H89.553ZM139.603 272.739H180.553V339.914H139.603V272.739ZM139.603 267.491V200.317H180.553V267.491H139.603ZM139.603 195.069V127.894H180.553V195.069H139.603ZM89.553 55.472V122.646H48.603V55.472H89.553ZM48.603 345.162H89.553V412.336H48.603V345.162ZM139.603 412.336V345.162H180.553V412.336H139.603ZM202.166 248.074V291.632H193.065V248.074C193.065 246.682 193.545 245.347 194.398 244.363C195.251 243.379 196.409 242.826 197.615 242.826C198.822 242.826 199.98 243.379 200.833 244.363C201.686 245.347 202.166 246.682 202.166 248.074Z" fill="#57C5B5"/>
</svg>
